<?xml version="1.0" encoding="UTF-8"?>
<svg xmlns="http://www.w3.org/2000/svg" width="348" height="67" viewBox="0 0 348 67" fill="none">
  <g clip-path="url(#clip0_2623_2405)">
    <path d="M90.8223 52.97V25.4225H97.7648L98.1498 29.36C100.15 26.36 102.905 24.86 106.415 24.86C107.665 24.87 108.91 25.055 110.107 25.4125L108.997 32.2825C107.985 31.9425 106.925 31.765 105.857 31.7575C103.725 31.7575 102.007 32.5425 100.705 34.1125C99.4023 35.6825 98.7498 37.92 98.7473 40.8225V52.97H90.8223Z" fill="white"></path>
    <path d="M113.138 25.4225H120.638L120.83 28.3975C121.995 27.2725 123.373 26.3875 124.88 25.795C126.468 25.17 128.16 24.855 129.865 24.87C132.3 24.8275 134.695 25.4725 136.78 26.73C138.8 27.97 140.445 29.73 141.548 31.8275C142.705 33.985 143.285 36.4425 143.283 39.195C143.283 41.9475 142.703 44.405 141.548 46.565C140.445 48.6625 138.8 50.4225 136.78 51.6625C134.695 52.92 132.3 53.565 129.865 53.5225C128.218 53.5375 126.583 53.2425 125.045 52.6525C123.588 52.0975 122.24 51.285 121.07 50.2525V66.7525H113.138V25.4225ZM128.068 31.7525C126.173 31.705 124.35 32.48 123.068 33.875C121.745 35.2875 121.083 37.06 121.083 39.19C121.083 41.32 121.74 43.09 123.055 44.5025C125.74 47.2725 130.16 47.34 132.928 44.6575C132.98 44.6075 133.03 44.555 133.083 44.5025C134.405 43.09 135.065 41.3175 135.065 39.185C135.065 37.0525 134.405 35.28 133.083 33.87C131.795 32.4725 129.968 31.7 128.068 31.7525Z" fill="white"></path>
    <path d="M148.51 25.4225H156.01L156.202 28.3975C157.367 27.2725 158.742 26.3875 160.247 25.795C161.835 25.17 163.527 24.855 165.232 24.87C167.667 24.8275 170.062 25.4725 172.147 26.73C174.167 27.97 175.812 29.73 176.915 31.8275C178.07 33.985 178.647 36.4425 178.65 39.195C178.65 41.9475 178.072 44.405 176.915 46.565C175.812 48.6625 174.167 50.4225 172.147 51.6625C170.062 52.92 167.667 53.565 165.232 53.5225C163.585 53.5375 161.95 53.2425 160.412 52.6525C158.955 52.0975 157.61 51.285 156.442 50.2525V66.7525H148.51V25.4225ZM163.44 31.7525C161.545 31.705 159.722 32.48 158.44 33.875C157.117 35.2875 156.455 37.06 156.455 39.19C156.455 41.32 157.112 43.09 158.427 44.5025C161.112 47.2725 165.532 47.34 168.3 44.6575C168.352 44.6075 168.402 44.555 168.455 44.5025C169.777 43.09 170.437 41.3175 170.437 39.185C170.437 37.0525 169.777 35.28 168.455 33.87C167.167 32.4725 165.34 31.7 163.44 31.7525Z" fill="white"></path>
    <path d="M191.815 10.545V52.97H183.883V10.545H191.815Z" fill="white"></path>
    <path d="M8.3673 60.2375C6.6423 58.2825 5.1623 56.125 3.9623 53.81C2.7298 51.4425 1.7773 48.94 1.1173 46.3525C0.444796 43.7125 0.0722962 41.0025 0.00979621 38.28C-0.0527038 35.5075 0.199796 32.735 0.759796 30.0175C1.8948 24.4325 4.2623 19.1725 7.6898 14.6175C9.4323 12.3075 11.4248 10.1925 13.6273 8.31503L14.4648 7.61503C14.7423 7.38003 15.0398 7.17253 15.3273 6.95003L16.2023 6.29253C16.4973 6.07503 16.8198 5.87003 17.1273 5.65753C17.7448 5.22503 18.3973 4.84503 19.0473 4.45753C19.3698 4.26003 19.7123 4.09503 20.0473 3.91253L20.5473 3.64753L20.7973 3.51503L21.0473 3.39503C26.6048 0.697528 32.7973 -0.424972 38.9498 0.145028C39.7173 0.235028 40.4898 0.305028 41.2523 0.445028C41.6323 0.510028 42.0198 0.560028 42.3973 0.645028L43.5348 0.895028C45.0523 1.24253 46.5423 1.69753 47.9973 2.25253C53.9123 4.47753 59.1023 8.28753 62.9973 13.265C63.2473 13.575 63.4848 13.8825 63.7173 14.2L64.3948 15.165C64.5048 15.3275 64.6173 15.485 64.7273 15.665L65.0548 16.1875C65.2698 16.54 65.4973 16.885 65.6923 17.25C67.3398 20.1425 68.4873 23.29 69.0898 26.5625C69.3823 28.2 69.5423 29.86 69.5648 31.5225C69.5998 34.8525 69.0823 38.165 68.0273 41.3225C67.8898 41.715 67.7598 42.11 67.6073 42.4975L67.1373 43.6525L66.6173 44.785C66.4398 45.1625 66.2398 45.535 66.0498 45.8975C65.2623 47.365 64.3548 48.765 63.3398 50.085C62.3148 51.4 61.1823 52.625 59.9498 53.7475C58.7298 54.8725 57.4148 55.8875 56.0198 56.785C55.6873 57.0125 55.2923 57.2375 54.9198 57.4575C54.5473 57.6775 54.1548 57.88 53.7673 58.0875C52.9873 58.4875 52.1873 58.845 51.3698 59.1625C46.4423 61.075 41.0348 61.365 35.9323 59.985C34.2573 59.5375 32.6323 58.9175 31.0848 58.135C27.9998 56.5575 25.2823 54.35 23.1073 51.655C22.8398 51.32 22.5748 50.985 22.3323 50.6325L21.9598 50.11C21.8373 49.935 21.7273 49.755 21.6098 49.575L21.2673 49.0375C21.1548 48.8575 21.0398 48.65 20.9273 48.4575C20.6973 48.0675 20.4948 47.6625 20.2923 47.2575C19.4998 45.6275 18.9223 43.9 18.5798 42.12L18.4648 41.4525L18.4123 41.12L18.3723 40.785L18.2948 40.1125L18.2473 39.43C18.2298 39.2075 18.2223 38.9825 18.2198 38.7575V38.0875C18.2323 37.64 18.2348 37.1925 18.2773 36.7475C18.5348 33.195 19.7223 29.7725 21.7198 26.825C22.7023 25.3725 23.8748 24.06 25.2048 22.9175C25.8623 22.355 26.5573 21.8325 27.2798 21.355L27.8273 21.015C28.0098 20.9025 28.1898 20.79 28.3973 20.68C28.6048 20.57 28.7948 20.455 28.9998 20.3525L29.6148 20.0525C31.2748 19.2875 33.0473 18.8025 34.8648 18.6125C36.6523 18.425 38.4573 18.5325 40.2073 18.935C43.6523 19.71 46.7423 21.6075 48.9923 24.33C49.5373 24.99 50.0248 25.6925 50.4523 26.4325C50.5623 26.6075 50.6648 26.815 50.7673 27.015L51.0673 27.6175C51.1673 27.8175 51.2548 28.025 51.3298 28.2375L51.5648 28.8675C52.1398 30.5475 52.3623 32.33 52.2173 34.1C52.0698 35.8225 51.5698 37.4975 50.7473 39.0175C49.9498 40.5 48.8548 41.8025 47.5273 42.84C47.2098 43.0975 46.8748 43.335 46.5273 43.5475C46.1798 43.7725 45.8173 43.975 45.4448 44.155C45.2523 44.2475 45.0598 44.34 44.8648 44.425L44.2648 44.6425L43.9648 44.745C43.8648 44.7775 43.7598 44.8 43.6573 44.8275L43.0423 44.975C42.2248 45.1375 41.3873 45.1925 40.5548 45.14C40.1448 45.12 39.7398 45.0675 39.3373 44.99L39.1873 44.965L39.0398 44.9275L38.7448 44.8525C38.5498 44.7975 38.3523 44.76 38.1623 44.6875C36.6548 44.195 35.3048 43.3175 34.2423 42.14C34.1148 41.995 33.9923 41.8525 33.8648 41.705L33.5123 41.2525L33.3498 41.02C33.2973 40.94 33.2523 40.8575 33.2048 40.77L32.9273 40.27C32.5773 39.59 32.3323 38.86 32.1998 38.1075C32.0923 37.3725 32.0973 36.6275 32.2173 35.895C32.4473 34.5 33.1298 33.22 34.1573 32.2525C34.6448 31.81 35.1973 31.445 35.7973 31.1725C35.3348 31.595 34.9348 32.085 34.6123 32.6225C34.3073 33.1375 34.0873 33.6975 33.9648 34.2825C33.7198 35.3725 33.8298 36.51 34.2798 37.5325C34.4973 38 34.7823 38.435 35.1248 38.8225L35.3998 39.1075C35.4473 39.155 35.4898 39.205 35.5373 39.25L35.6898 39.375L35.9848 39.625L36.3023 39.84C37.1223 40.39 38.0698 40.72 39.0523 40.8025C39.1698 40.81 39.2873 40.81 39.4048 40.8025H39.7523C39.9823 40.79 40.2098 40.765 40.4373 40.7225C40.8748 40.645 41.3023 40.515 41.7098 40.3325L41.9998 40.185C42.0473 40.1575 42.0948 40.14 42.1423 40.11L42.2773 40.02L42.5448 39.85L42.7948 39.6475C42.9698 39.5075 43.1373 39.3575 43.2948 39.1975C43.4598 39.0425 43.6148 38.875 43.7548 38.6975C44.8623 37.3775 45.3848 35.6625 45.1998 33.9475C44.8948 30.8275 41.6098 28.265 38.5498 28.145C37.0598 28.0475 35.5773 28.435 34.3273 29.2525L34.1048 29.4025L33.8898 29.565C33.8223 29.6125 33.7398 29.6825 33.6598 29.7475L33.4098 29.9425C33.1023 30.21 32.8148 30.4975 32.5423 30.8C32.0123 31.3925 31.5573 32.05 31.1923 32.755C30.4848 34.1375 30.1398 35.68 30.1923 37.2325C30.2148 37.98 30.3323 38.72 30.5423 39.4375C30.7598 40.1375 31.0598 40.8075 31.4348 41.4375C31.5348 41.59 31.6248 41.75 31.7348 41.8975C31.7898 41.9725 31.8323 42.045 31.8973 42.1275L32.0873 42.3775C32.1523 42.46 32.2098 42.5475 32.2798 42.6275L32.4823 42.8775C32.6098 43.04 32.7548 43.1875 32.8973 43.34C33.4598 43.9375 34.0798 44.475 34.7498 44.95C38.0823 47.3325 42.4173 47.805 46.1873 46.2C46.5498 46.045 46.9023 45.8725 47.2473 45.6825C47.4148 45.5825 47.5948 45.4975 47.7473 45.3825C47.8998 45.2675 48.0748 45.185 48.2623 45.045C48.9923 44.55 49.6823 43.995 50.3198 43.385C50.9573 42.785 51.5448 42.13 52.0698 41.43C52.5973 40.7325 53.0698 39.9925 53.4798 39.2175C53.5773 39.02 53.6873 38.8325 53.7773 38.6325L54.0498 38.0325L54.2998 37.42C54.3798 37.2175 54.4423 37.005 54.5198 36.8C55.0873 35.1325 55.3748 33.3825 55.3698 31.62C55.3723 30.7425 55.3073 29.8675 55.1698 29C55.0248 28.1325 54.8123 27.28 54.5323 26.4475C54.2598 25.6025 53.9148 24.785 53.4973 24.0025C53.4048 23.8 53.2823 23.6125 53.1723 23.42L53.0073 23.13C52.9473 23.03 52.8748 22.9275 52.8098 22.8275L52.4198 22.215C52.2848 22.015 52.1373 21.8225 51.9998 21.625C50.8648 20.055 49.5323 18.6375 48.0373 17.4075C47.8498 17.2525 47.6523 17.1125 47.4623 16.96L47.1773 16.7525C47.0823 16.6775 46.9773 16.6125 46.8798 16.5425L46.2798 16.1225L45.6623 15.735L45.3548 15.5375L45.0348 15.355L44.3973 14.9925L43.7473 14.6475C43.6373 14.595 43.5298 14.5325 43.4173 14.4825L43.0823 14.3325C42.1873 13.925 41.2698 13.575 40.3323 13.2825L39.6198 13.0725C39.3823 12.9975 39.1373 12.955 38.8973 12.8925C38.4173 12.7625 37.9273 12.6875 37.4398 12.5875C33.4348 11.9 29.3223 12.26 25.4973 13.6325L25.3148 13.695L25.1373 13.7675L24.7798 13.91C24.5448 14.01 24.2973 14.09 24.0673 14.2025C23.5998 14.4225 23.1198 14.6175 22.6648 14.8675C22.4348 14.99 22.2023 15.0975 21.9698 15.2325L21.2648 15.645C21.0323 15.785 20.7873 15.91 20.5623 16.0625L19.8898 16.5025C18.0498 17.7125 16.3398 19.105 14.7873 20.665C11.5948 23.88 9.0948 27.7175 7.4448 31.9375C6.5848 34.1075 5.9473 36.36 5.5448 38.6575C5.1373 41.01 4.9648 43.3975 5.0323 45.7825C5.1923 50.7725 6.3248 55.6825 8.3673 60.2375Z" fill="white"></path>
    <path d="M210.463 33.3575V24.77H213.363C213.93 24.75 214.493 24.8675 215.003 25.115C215.413 25.3175 215.748 25.645 215.96 26.05C216.173 26.47 216.278 26.935 216.268 27.405C216.288 27.875 216.19 28.3425 215.985 28.7675C215.77 29.165 215.438 29.485 215.033 29.685C214.52 29.925 213.958 30.0375 213.393 30.0125H211.03V29.07H213.36C213.74 29.085 214.118 29.0175 214.468 28.87C214.73 28.7525 214.945 28.5525 215.078 28.3C215.213 28.0225 215.278 27.7175 215.27 27.41C215.278 27.0975 215.21 26.79 215.078 26.5075C214.943 26.245 214.728 26.035 214.46 25.91C214.108 25.755 213.723 25.6825 213.338 25.7H211.51V33.355H210.458L210.463 33.3575ZM214.503 29.495L216.618 33.355H215.41L213.328 29.495H214.503Z" fill="white"></path>
    <path d="M220.51 33.4925C219.948 33.5075 219.393 33.365 218.905 33.08C218.455 32.805 218.095 32.4025 217.868 31.925C217.618 31.38 217.495 30.7875 217.508 30.19C217.495 29.5875 217.62 28.9925 217.868 28.445C218.09 27.9625 218.443 27.5525 218.885 27.26C219.34 26.97 219.868 26.8225 220.408 26.8325C220.743 26.8325 221.075 26.89 221.393 27C221.725 27.1175 222.03 27.3025 222.288 27.545C222.58 27.8175 222.803 28.155 222.943 28.53C223.115 29.0175 223.195 29.5325 223.183 30.05V30.47H218.21V29.62H222.17C222.178 29.28 222.105 28.9425 221.953 28.635C221.818 28.3575 221.605 28.1225 221.343 27.96C221.06 27.79 220.738 27.705 220.408 27.71C220.045 27.7 219.69 27.8025 219.388 28.0025C219.105 28.1925 218.88 28.455 218.733 28.76C218.58 29.065 218.5 29.4025 218.5 29.745V30.315C218.488 30.7425 218.575 31.165 218.755 31.5525C218.908 31.8725 219.155 32.1375 219.46 32.3175C219.78 32.4975 220.145 32.59 220.513 32.58C220.753 32.585 220.99 32.545 221.218 32.4675C221.423 32.4 221.61 32.29 221.765 32.14C221.925 31.9825 222.048 31.7925 222.123 31.5825L223.078 31.8475C222.98 32.17 222.808 32.4625 222.573 32.7025C222.323 32.9525 222.023 33.1475 221.69 33.27C221.315 33.42 220.913 33.495 220.51 33.4925Z" fill="white"></path>
    <path d="M229.248 28.36L228.358 28.61C228.298 28.455 228.215 28.3075 228.113 28.1775C227.998 28.0275 227.848 27.9075 227.675 27.8275C227.453 27.7275 227.21 27.68 226.968 27.69C226.62 27.6775 226.275 27.7725 225.983 27.9625C225.74 28.105 225.59 28.3675 225.59 28.6475C225.583 28.8725 225.683 29.0875 225.86 29.2275C226.113 29.4025 226.398 29.525 226.7 29.585L227.655 29.82C228.135 29.91 228.583 30.13 228.945 30.4575C229.23 30.7525 229.383 31.1525 229.368 31.5625C229.368 31.9175 229.253 32.2625 229.04 32.5475C228.81 32.8525 228.505 33.09 228.155 33.2375C227.74 33.4125 227.293 33.4975 226.843 33.4875C226.265 33.5125 225.695 33.365 225.203 33.06C224.77 32.7725 224.473 32.3225 224.383 31.81L225.325 31.575C225.393 31.8875 225.575 32.1675 225.833 32.355C226.125 32.5425 226.47 32.6325 226.818 32.6175C227.208 32.6375 227.593 32.5325 227.92 32.32C228.168 32.1675 228.32 31.9025 228.328 31.6125C228.335 31.41 228.265 31.2125 228.128 31.065C227.92 30.8925 227.673 30.78 227.405 30.7375L226.33 30.485C225.838 30.4 225.383 30.1725 225.018 29.83C224.508 29.245 224.465 28.39 224.913 27.7575C225.13 27.4675 225.423 27.2425 225.755 27.1025C226.138 26.9375 226.553 26.855 226.968 26.8625C227.5 26.8325 228.03 26.98 228.47 27.2825C228.833 27.5575 229.105 27.935 229.25 28.3675L229.248 28.36Z" fill="white"></path>
    <path d="M233.558 33.4925C232.995 33.5075 232.44 33.365 231.958 33.08C231.505 32.805 231.145 32.405 230.92 31.925C230.668 31.3825 230.543 30.7875 230.555 30.19C230.543 29.5875 230.668 28.9925 230.92 28.445C231.14 27.9625 231.493 27.5525 231.933 27.26C232.388 26.9725 232.918 26.8225 233.458 26.8325C233.793 26.8325 234.125 26.89 234.443 27C234.775 27.1175 235.078 27.3025 235.335 27.545C235.625 27.82 235.85 28.155 235.99 28.53C236.16 29.0175 236.243 29.5325 236.23 30.05V30.47H231.26V29.62H235.22C235.228 29.28 235.155 28.9425 235.003 28.635C234.865 28.3575 234.653 28.1225 234.39 27.96C234.11 27.79 233.788 27.7025 233.458 27.71C233.095 27.7025 232.738 27.8025 232.435 28.0025C232.153 28.1925 231.928 28.455 231.78 28.76C231.628 29.065 231.55 29.4025 231.55 29.745V30.315C231.538 30.74 231.625 31.165 231.803 31.5525C231.958 31.8725 232.205 32.1375 232.51 32.3175C232.83 32.4975 233.193 32.5875 233.56 32.58C233.8 32.585 234.04 32.5475 234.268 32.4675C234.69 32.325 235.023 31.9975 235.17 31.575L236.128 31.84C236.028 32.1625 235.855 32.455 235.62 32.695C235.373 32.945 235.073 33.14 234.74 33.2625C234.363 33.4125 233.963 33.49 233.555 33.4925H233.558Z" fill="white"></path>
    <path d="M239.632 33.5101C239.25 33.5151 238.87 33.4351 238.52 33.2776C237.832 32.9751 237.402 32.2801 237.435 31.5301C237.422 31.2151 237.497 30.9051 237.652 30.6301C237.797 30.4026 237.997 30.2151 238.237 30.0851C238.492 29.9501 238.762 29.8501 239.045 29.7901C239.34 29.7251 239.635 29.6726 239.937 29.6326L240.89 29.5176C241.075 29.5076 241.257 29.4601 241.427 29.3826C241.542 29.3151 241.607 29.1876 241.597 29.0551V29.0226C241.622 28.6701 241.505 28.3226 241.27 28.0576C240.987 27.8151 240.62 27.6951 240.25 27.7301C239.852 27.7126 239.462 27.8276 239.137 28.0576C238.9 28.2276 238.705 28.4526 238.57 28.7126L237.632 28.3851C237.77 28.0276 237.995 27.7126 238.287 27.4676C238.56 27.2526 238.872 27.0951 239.21 27.0076C239.53 26.9201 239.862 26.8751 240.195 26.8726C240.435 26.8751 240.675 26.9026 240.91 26.9476C241.187 26.9976 241.452 27.1001 241.695 27.2451C241.962 27.4101 242.182 27.6476 242.327 27.9276C242.512 28.3101 242.6 28.7301 242.58 29.1551V33.3526H241.595V32.4801H241.545C241.46 32.6451 241.35 32.7951 241.217 32.9251C241.04 33.1076 240.827 33.2526 240.59 33.3526C240.285 33.4676 239.96 33.5201 239.635 33.5076L239.632 33.5101ZM239.785 32.6226C240.127 32.6326 240.467 32.5526 240.77 32.3901C241.025 32.2501 241.235 32.0451 241.382 31.7976C241.517 31.5651 241.59 31.3001 241.59 31.0301V30.1251C241.512 30.1926 241.417 30.2401 241.315 30.2601C241.155 30.3051 240.992 30.3401 240.83 30.3651C240.647 30.3951 240.47 30.4201 240.297 30.4401L239.877 30.4926C239.632 30.5226 239.392 30.5776 239.16 30.6526C238.957 30.7176 238.772 30.8301 238.622 30.9801C238.48 31.1451 238.407 31.3601 238.42 31.5776C238.402 31.8876 238.547 32.1826 238.805 32.3576C239.097 32.5451 239.442 32.6376 239.79 32.6226H239.785Z" fill="white"></path>
    <path d="M244.395 33.3575V26.9175H245.35V27.9025H245.42C245.54 27.58 245.765 27.3075 246.058 27.1275C246.368 26.9275 246.73 26.825 247.098 26.83H247.62V27.8375L247.39 27.7975C247.268 27.7775 247.14 27.77 247.015 27.7725C246.725 27.7675 246.438 27.835 246.178 27.965C245.94 28.0875 245.738 28.275 245.598 28.5025C245.455 28.7375 245.383 29.005 245.388 29.28V33.3575H244.398H244.395Z" fill="white"></path>
    <path d="M251.205 33.4925C250.103 33.535 249.085 32.9 248.64 31.8875C248.395 31.35 248.275 30.7625 248.285 30.1725C248.273 29.575 248.398 28.98 248.65 28.4375C248.873 27.9575 249.223 27.55 249.663 27.26C250.118 26.9725 250.648 26.8225 251.188 26.8325C251.61 26.8275 252.028 26.9125 252.41 27.085C252.763 27.2425 253.068 27.485 253.303 27.79C253.538 28.0975 253.688 28.4625 253.735 28.845H252.75C252.668 28.54 252.493 28.2675 252.253 28.065C251.96 27.825 251.588 27.7 251.21 27.72C250.85 27.7125 250.495 27.8175 250.198 28.0225C249.898 28.235 249.665 28.5275 249.523 28.865C249.355 29.2675 249.273 29.7025 249.283 30.1375C249.27 30.5875 249.353 31.0325 249.518 31.45C249.653 31.7925 249.88 32.09 250.173 32.31C250.683 32.645 251.325 32.7075 251.893 32.48C252.315 32.3075 252.63 31.94 252.735 31.495H253.72C253.668 31.865 253.528 32.2175 253.308 32.5175C253.083 32.8275 252.785 33.075 252.443 33.24C252.055 33.415 251.633 33.5 251.205 33.49V33.4925Z" fill="white"></path>
    <path d="M256.172 29.4825V33.3575H255.188V24.77H256.172V27.925H256.255C256.4 27.5975 256.638 27.3225 256.938 27.1275C257.305 26.915 257.727 26.8125 258.15 26.8325C258.55 26.825 258.947 26.915 259.305 27.095C259.637 27.275 259.908 27.555 260.073 27.895C260.27 28.325 260.365 28.795 260.348 29.265V33.355H259.362V29.33C259.392 28.8975 259.25 28.47 258.965 28.1425C258.677 27.85 258.277 27.6975 257.87 27.72C257.567 27.715 257.267 27.785 257 27.9275C256.745 28.065 256.535 28.2725 256.397 28.5275C256.24 28.82 256.163 29.15 256.17 29.4825H256.172Z" fill="white"></path>
    <path d="M265.615 33.3575V24.77H268.515C269.09 24.7475 269.66 24.8725 270.173 25.135C270.583 25.3575 270.915 25.7025 271.125 26.12C271.538 26.9925 271.538 28.0025 271.125 28.875C270.915 29.2925 270.583 29.635 270.173 29.86C269.668 30.1225 269.103 30.25 268.533 30.2275H266.453V29.305H268.5C268.885 29.3225 269.268 29.24 269.613 29.065C269.88 28.9175 270.095 28.6875 270.223 28.41C270.475 27.82 270.475 27.15 270.223 26.56C270.093 26.2875 269.878 26.065 269.61 25.9225C269.26 25.7525 268.873 25.6725 268.485 25.69H266.658V33.36H265.618L265.615 33.3575Z" fill="white"></path>
    <path d="M274.873 33.5101C274.49 33.5151 274.11 33.4351 273.76 33.2776C273.075 32.9701 272.645 32.2801 272.675 31.5301C272.66 31.2151 272.738 30.9026 272.895 30.6301C273.038 30.4001 273.238 30.2126 273.475 30.0851C273.73 29.9501 274.003 29.8501 274.285 29.7901C274.578 29.7251 274.875 29.6726 275.175 29.6326C275.568 29.5826 275.883 29.5451 276.13 29.5176C276.315 29.5076 276.498 29.4601 276.668 29.3826C276.78 29.3126 276.845 29.1876 276.835 29.0551V29.0226C276.86 28.6701 276.743 28.3226 276.508 28.0576C276.225 27.8151 275.855 27.6951 275.485 27.7301C275.09 27.7126 274.698 27.8276 274.378 28.0576C274.138 28.2276 273.943 28.4526 273.81 28.7126L272.873 28.3851C273.01 28.0276 273.235 27.7126 273.528 27.4676C273.8 27.2501 274.113 27.0951 274.45 27.0076C274.77 26.9201 275.103 26.8751 275.435 26.8726C275.675 26.8776 275.915 26.9026 276.15 26.9476C276.428 27.0001 276.693 27.1001 276.935 27.2451C277.203 27.4126 277.42 27.6476 277.565 27.9276C277.75 28.3076 277.838 28.7301 277.818 29.1551V33.3526H276.833V32.4801H276.783C276.698 32.6451 276.588 32.7976 276.455 32.9251C276.275 33.1001 276.063 33.2401 275.828 33.3326C275.525 33.4551 275.203 33.5126 274.875 33.5076L274.873 33.5101ZM275.025 32.6226C275.368 32.6326 275.708 32.5526 276.01 32.3901C276.263 32.2526 276.475 32.0451 276.62 31.7976C276.755 31.5651 276.828 31.3001 276.828 31.0301V30.1251C276.75 30.1951 276.658 30.2401 276.555 30.2601C276.395 30.3051 276.233 30.3401 276.065 30.3651C275.885 30.3951 275.705 30.4201 275.533 30.4401L275.115 30.4926C274.87 30.5226 274.63 30.5776 274.398 30.6526C274.193 30.7151 274.01 30.8276 273.86 30.9801C273.718 31.1451 273.645 31.3601 273.658 31.5776C273.635 31.8951 273.785 32.1976 274.048 32.3751C274.343 32.5576 274.685 32.6426 275.033 32.6251H275.025V32.6226Z" fill="white"></path>
    <path d="M279.623 33.3575V26.9175H280.608V27.9025H280.673C280.795 27.58 281.02 27.3075 281.313 27.1275C281.623 26.9275 281.985 26.8225 282.353 26.83H282.87V27.8375L282.643 27.7975C282.51 27.78 282.378 27.775 282.245 27.78C281.955 27.775 281.668 27.8425 281.408 27.9725C281.17 28.0975 280.97 28.2825 280.83 28.51C280.688 28.7425 280.613 29.0125 280.618 29.2875V33.355H279.62L279.623 33.3575Z" fill="white"></path>
    <path d="M287.238 26.9176V27.7576H283.888V26.9176H287.238ZM284.87 25.3726H285.855V31.5126C285.84 31.7276 285.883 31.9451 285.978 32.1401C286.05 32.2676 286.168 32.3676 286.305 32.4201C286.438 32.4651 286.578 32.4901 286.718 32.4901C286.808 32.4901 286.898 32.4851 286.988 32.4701L287.155 32.4376L287.358 33.3276C287.265 33.3601 287.17 33.3876 287.075 33.4051C286.925 33.4351 286.773 33.4476 286.62 33.4451C286.338 33.4451 286.058 33.3826 285.8 33.2651C285.213 33.0126 284.845 32.4226 284.875 31.7851V25.3751L284.87 25.3726Z" fill="white"></path>
    <path d="M289.72 29.4824V33.3574H288.735V26.9174H289.69V27.9249H289.775C289.918 27.5999 290.15 27.3199 290.448 27.1249C290.808 26.9099 291.22 26.8049 291.638 26.8224C292.035 26.8124 292.43 26.9049 292.783 27.0924C293.115 27.2749 293.38 27.5549 293.543 27.8949C293.74 28.3199 293.835 28.7874 293.818 29.2574V33.3574H292.833V29.3324C292.858 28.9024 292.718 28.4774 292.44 28.1474C292.158 27.8549 291.763 27.6999 291.358 27.7199C291.063 27.7149 290.77 27.7849 290.51 27.9274C290.263 28.0674 290.058 28.2749 289.925 28.5274C289.775 28.8224 289.703 29.1524 289.715 29.4824H289.72Z" fill="white"></path>
    <path d="M298.34 33.4924C297.778 33.5074 297.223 33.3649 296.735 33.0799C296.285 32.8049 295.925 32.4024 295.698 31.9249C295.448 31.3799 295.325 30.7874 295.338 30.1899C295.323 29.5874 295.445 28.9874 295.695 28.4374C295.918 27.9549 296.27 27.5449 296.713 27.2524C297.168 26.9624 297.698 26.8149 298.235 26.8249C298.57 26.8249 298.903 26.8824 299.22 26.9924C299.553 27.1099 299.858 27.2949 300.115 27.5374C300.408 27.8099 300.63 28.1474 300.77 28.5224C300.943 29.0099 301.023 29.5249 301.01 30.0424V30.4624H296.048V29.6199H300.003C300.01 29.2799 299.938 28.9424 299.79 28.6349C299.653 28.3574 299.44 28.1224 299.178 27.9599C298.895 27.7899 298.573 27.7024 298.243 27.7099C297.88 27.7024 297.525 27.8024 297.223 28.0024C296.94 28.1924 296.715 28.4549 296.568 28.7599C296.415 29.0649 296.338 29.4024 296.338 29.7449V30.3149C296.325 30.7424 296.41 31.1649 296.59 31.5524C296.743 31.8724 296.99 32.1374 297.295 32.3174C297.615 32.4974 297.98 32.5899 298.348 32.5799C298.588 32.5824 298.828 32.5449 299.055 32.4674C299.26 32.3999 299.445 32.2874 299.6 32.1399C299.76 31.9824 299.883 31.7924 299.958 31.5824L300.915 31.8474C300.815 32.1699 300.64 32.4624 300.408 32.7024C300.158 32.9524 299.858 33.1474 299.525 33.2699C299.148 33.4199 298.745 33.4949 298.34 33.4924Z" fill="white"></path>
    <path d="M302.515 33.3575V26.9175H303.473V27.9025H303.538C303.66 27.58 303.885 27.3075 304.178 27.1275C304.488 26.9275 304.85 26.8225 305.218 26.83H305.735V27.8375L305.508 27.7975C305.383 27.7775 305.258 27.77 305.13 27.7725C304.84 27.7675 304.553 27.835 304.293 27.965C304.055 28.09 303.855 28.275 303.715 28.5025C303.573 28.735 303.498 29.005 303.503 29.28V33.3575H302.513H302.515Z" fill="white"></path>
    <path d="M311.475 28.36L310.585 28.61C310.525 28.455 310.443 28.3075 310.34 28.1775C310.223 28.0275 310.075 27.9075 309.903 27.8275C309.68 27.7275 309.438 27.68 309.195 27.69C308.848 27.6775 308.503 27.7725 308.21 27.9625C307.968 28.105 307.818 28.3675 307.818 28.6475C307.81 28.8725 307.91 29.0875 308.088 29.2275C308.34 29.4025 308.625 29.525 308.928 29.585L309.883 29.82C310.363 29.91 310.81 30.13 311.173 30.4575C311.458 30.7525 311.61 31.1525 311.595 31.5625C311.595 31.9175 311.48 32.2625 311.268 32.5475C311.04 32.8525 310.735 33.09 310.385 33.2375C309.97 33.4125 309.523 33.495 309.073 33.4875C308.495 33.51 307.925 33.3625 307.433 33.06C307 32.7725 306.705 32.32 306.615 31.81L307.558 31.575C307.625 31.8875 307.808 32.1675 308.065 32.355C308.358 32.5425 308.703 32.6325 309.05 32.6175C309.438 32.6375 309.823 32.5325 310.15 32.32C310.398 32.1675 310.553 31.9025 310.56 31.6125C310.565 31.4 310.48 31.195 310.325 31.0475C310.118 30.875 309.87 30.7625 309.603 30.72L308.53 30.4675C308.038 30.3825 307.583 30.155 307.218 29.8125C306.713 29.2275 306.67 28.3725 307.115 27.74C307.333 27.4525 307.623 27.225 307.955 27.085C308.34 26.92 308.755 26.84 309.173 26.845C309.705 26.815 310.235 26.9625 310.675 27.265C311.05 27.5425 311.33 27.925 311.478 28.3675L311.475 28.36Z" fill="white"></path>
    <path d="M314.065 29.4825V33.3575H313.08V24.77H314.065V27.925H314.148C314.293 27.6 314.53 27.3225 314.83 27.1275C315.198 26.915 315.62 26.8125 316.043 26.8325C316.443 26.825 316.84 26.915 317.198 27.095C317.53 27.275 317.8 27.555 317.965 27.895C318.163 28.325 318.258 28.795 318.24 29.265V33.355H317.255V29.33C317.285 28.8975 317.143 28.47 316.858 28.1425C316.57 27.85 316.17 27.6975 315.763 27.72C315.46 27.715 315.16 27.785 314.893 27.9275C314.638 28.065 314.428 28.2725 314.29 28.5275C314.133 28.82 314.055 29.15 314.063 29.4825H314.065Z" fill="white"></path>
    <path d="M320.567 25.845C320.382 25.8475 320.202 25.7775 320.07 25.6475C319.937 25.525 319.865 25.3525 319.862 25.1725C319.862 24.9925 319.935 24.82 320.07 24.7C320.347 24.4425 320.777 24.4425 321.055 24.7C321.187 24.82 321.262 24.9925 321.262 25.1725C321.262 25.3525 321.187 25.525 321.055 25.6475C320.925 25.775 320.75 25.845 320.57 25.845H320.567ZM320.062 33.3575V26.9175H321.047V33.3575H320.062Z" fill="white"></path>
    <path d="M322.862 35.7751V26.9176H323.82V27.9401H323.937C324.01 27.8276 324.112 27.6851 324.24 27.5101C324.392 27.3176 324.585 27.1576 324.8 27.0401C325.105 26.8876 325.442 26.8151 325.785 26.8301C326.292 26.8226 326.79 26.9626 327.217 27.2376C327.647 27.5226 327.99 27.9226 328.202 28.3926C328.665 29.5251 328.665 30.7926 328.202 31.9251C327.995 32.3926 327.662 32.7951 327.237 33.0826C326.815 33.3576 326.317 33.5001 325.815 33.4901C325.475 33.5026 325.137 33.4326 324.83 33.2826C324.607 33.1676 324.412 33.0051 324.255 32.8101C324.12 32.6326 324.02 32.4826 323.947 32.3676H323.862V35.7726H322.862V35.7751ZM323.847 30.1401C323.84 30.5776 323.912 31.0126 324.06 31.4226C324.18 31.7676 324.397 32.0676 324.687 32.2926C324.975 32.5126 325.33 32.6276 325.692 32.6201C326.067 32.6326 326.432 32.5176 326.732 32.2926C327.02 32.0601 327.237 31.7526 327.36 31.4026C327.64 30.6026 327.64 29.7301 327.36 28.9301C327.237 28.5876 327.02 28.2851 326.732 28.0601C326.43 27.8351 326.062 27.7201 325.685 27.7326C325.322 27.7201 324.967 27.8276 324.672 28.0376C324.387 28.2526 324.172 28.5476 324.052 28.8851C323.905 29.2876 323.832 29.7126 323.84 30.1426H323.85L323.847 30.1401Z" fill="white"></path>
    <path d="M213.198 43.975V44.815H209.723V43.975H213.198ZM210.765 50.415V43.0875C210.753 42.76 210.845 42.4375 211.025 42.165C211.195 41.9225 211.43 41.73 211.7 41.61C211.975 41.4875 212.275 41.425 212.575 41.4275C212.775 41.4225 212.975 41.4425 213.173 41.4825C213.29 41.51 213.405 41.5475 213.518 41.595L213.233 42.45L213.025 42.385C212.91 42.3575 212.795 42.3475 212.678 42.35C212.418 42.325 212.16 42.415 211.973 42.595C211.815 42.8025 211.738 43.06 211.755 43.32V50.415H210.765Z" fill="white"></path>
    <path d="M216.938 50.5474C215.848 50.5824 214.845 49.9624 214.385 48.9724C214.13 48.4274 214.003 47.8299 214.018 47.2274C214.003 46.6199 214.128 46.0199 214.385 45.4699C214.61 44.9924 214.965 44.5899 215.408 44.3049C216.35 43.7499 217.523 43.7499 218.465 44.3049C218.908 44.5899 219.263 44.9924 219.488 45.4699C219.743 46.0199 219.868 46.6224 219.855 47.2274C219.868 47.8299 219.743 48.4274 219.488 48.9724C219.03 49.9624 218.025 50.5799 216.935 50.5474H216.938ZM216.938 49.6599C217.328 49.6799 217.713 49.5624 218.028 49.3324C218.318 49.0999 218.538 48.7899 218.66 48.4399C218.935 47.6624 218.935 46.8124 218.66 46.0349C218.538 45.6824 218.318 45.3699 218.028 45.1324C217.375 44.6724 216.503 44.6724 215.85 45.1324C215.56 45.3699 215.34 45.6824 215.213 46.0349C214.943 46.8124 214.943 47.6599 215.213 48.4399C215.338 48.7899 215.558 49.0999 215.85 49.3324C216.165 49.5649 216.55 49.6799 216.94 49.6599H216.938Z" fill="white"></path>
    <path d="M221.365 50.415V43.975H222.32V44.96H222.39C222.51 44.6375 222.733 44.365 223.028 44.185C223.338 43.985 223.7 43.8825 224.068 43.8875H224.59V44.895L224.36 44.855C224.238 44.835 224.11 44.8275 223.985 44.83C223.695 44.825 223.408 44.8925 223.148 45.0225C222.91 45.145 222.708 45.3325 222.568 45.56C222.425 45.795 222.353 46.0625 222.358 46.3375V50.415H221.368H221.365Z" fill="white"></path>
    <path d="M229.215 50.415V41.8275H232.117C232.687 41.8075 233.25 41.9325 233.757 42.1925C234.167 42.415 234.502 42.76 234.712 43.1775C234.93 43.605 235.042 44.0775 235.04 44.555C235.045 45.0325 234.94 45.5025 234.732 45.9325C234.522 46.35 234.19 46.6925 233.78 46.9175C233.275 47.18 232.71 47.3075 232.14 47.285H230.06V46.3625H232.107C232.492 46.38 232.872 46.2975 233.215 46.1225C233.485 45.9775 233.7 45.745 233.825 45.4675C234.085 44.8775 234.085 44.2075 233.825 43.6175C233.695 43.345 233.48 43.12 233.212 42.98C232.865 42.81 232.477 42.7275 232.09 42.7475H230.252V50.4175H229.212L229.215 50.415Z" fill="white"></path>
    <path d="M236.58 50.415V43.975H237.535V44.96H237.605C237.725 44.6375 237.948 44.365 238.243 44.185C238.553 43.985 238.915 43.8825 239.283 43.8875H239.805V44.895L239.575 44.855C239.453 44.835 239.325 44.8275 239.2 44.83C238.91 44.825 238.623 44.8925 238.363 45.0225C238.125 45.145 237.923 45.3325 237.783 45.56C237.64 45.795 237.568 46.0625 237.573 46.3375V50.415H236.583H236.58Z" fill="white"></path>
    <path d="M243.39 50.5475C242.3 50.5825 241.298 49.9625 240.838 48.9725C240.583 48.4275 240.458 47.83 240.47 47.2275C240.458 46.62 240.583 46.02 240.838 45.47C241.063 44.9925 241.418 44.59 241.86 44.305C242.803 43.75 243.975 43.75 244.918 44.305C245.36 44.59 245.715 44.9925 245.94 45.47C246.198 46.02 246.323 46.6225 246.308 47.2275C246.323 47.83 246.195 48.4275 245.94 48.9725C245.483 49.9625 244.478 50.58 243.388 50.5475H243.39ZM243.39 49.66C243.78 49.68 244.165 49.565 244.48 49.3325C244.77 49.1025 244.99 48.795 245.118 48.4475C245.388 47.67 245.388 46.8225 245.118 46.0425C244.993 45.69 244.773 45.3775 244.48 45.14C243.828 44.68 242.955 44.68 242.303 45.14C242.013 45.375 241.793 45.6875 241.67 46.0425C241.395 46.82 241.395 47.67 241.67 48.4475C241.793 48.7975 242.013 49.1075 242.303 49.34C242.618 49.57 243.003 49.6825 243.393 49.6625L243.39 49.66Z" fill="white"></path>
    <path d="M250.687 43.975V44.815H247.212V43.975H250.687ZM248.255 50.415V43.0875C248.242 42.76 248.335 42.4375 248.515 42.165C248.685 41.9225 248.92 41.73 249.19 41.61C249.465 41.4875 249.765 41.425 250.065 41.4275C250.265 41.4225 250.465 41.4425 250.662 41.4825C250.775 41.5125 250.885 41.55 250.99 41.595L250.705 42.45L250.497 42.385C250.382 42.3575 250.267 42.3475 250.15 42.35C249.89 42.325 249.632 42.415 249.445 42.595C249.287 42.8025 249.21 43.06 249.227 43.32V50.415H248.252H248.255Z" fill="white"></path>
    <path d="M254.51 50.5475C253.948 50.5625 253.393 50.42 252.91 50.135C252.458 49.86 252.098 49.46 251.873 48.98C251.62 48.4375 251.495 47.8425 251.508 47.245C251.495 46.64 251.618 46.0425 251.873 45.4925C252.093 45.01 252.445 44.6 252.885 44.3075C253.34 44.02 253.87 43.87 254.41 43.88C254.745 43.88 255.078 43.9375 255.395 44.0475C255.728 44.165 256.03 44.35 256.288 44.5925C256.578 44.8675 256.803 45.2025 256.943 45.5775C257.113 46.065 257.195 46.58 257.183 47.0975V47.5175H252.213V46.675H256.173C256.18 46.335 256.108 45.9975 255.955 45.69C255.818 45.4125 255.605 45.1775 255.343 45.015C255.063 44.8425 254.74 44.7575 254.41 44.765C254.048 44.7575 253.69 44.8575 253.388 45.0575C253.105 45.2475 252.88 45.51 252.733 45.815C252.58 46.12 252.503 46.4575 252.503 46.8V47.37C252.49 47.795 252.578 48.22 252.755 48.6075C252.91 48.9275 253.158 49.1925 253.463 49.3725C253.783 49.5525 254.145 49.6425 254.513 49.635C254.753 49.64 254.993 49.6025 255.22 49.5225C255.643 49.38 255.975 49.0525 256.123 48.63L257.08 48.895C256.98 49.2175 256.808 49.51 256.573 49.75C256.325 50 256.025 50.195 255.693 50.3175C255.315 50.4675 254.915 50.545 254.508 50.5475H254.51Z" fill="white"></path>
    <path d="M263.25 45.4175L262.36 45.6675C262.3 45.5125 262.217 45.365 262.115 45.235C261.997 45.085 261.847 44.965 261.675 44.885C261.452 44.785 261.21 44.7375 260.967 44.7475C260.62 44.735 260.275 44.83 259.982 45.02C259.742 45.165 259.595 45.425 259.592 45.705C259.582 45.93 259.682 46.1475 259.862 46.285C260.112 46.4625 260.397 46.5825 260.7 46.6425L261.657 46.8775C262.137 46.9675 262.582 47.1875 262.942 47.515C263.227 47.81 263.38 48.21 263.365 48.62C263.365 48.975 263.25 49.32 263.037 49.605C262.81 49.91 262.505 50.1475 262.155 50.295C261.74 50.4675 261.292 50.5525 260.842 50.545C260.265 50.57 259.695 50.4225 259.202 50.1175C258.77 49.83 258.475 49.3775 258.385 48.8675L259.322 48.6325C259.39 48.9475 259.572 49.225 259.835 49.4125C260.127 49.6 260.472 49.69 260.82 49.675C261.21 49.695 261.595 49.59 261.922 49.3775C262.17 49.225 262.325 48.96 262.332 48.67C262.337 48.4575 262.252 48.2525 262.097 48.105C261.89 47.9325 261.642 47.82 261.375 47.7775L260.302 47.525C259.81 47.44 259.355 47.2125 258.99 46.87C258.712 46.57 258.565 46.17 258.577 45.7625C258.572 45.415 258.68 45.0775 258.885 44.7975C259.105 44.51 259.395 44.285 259.727 44.1425C260.11 43.9775 260.525 43.8975 260.94 43.9025C261.475 43.8725 262.002 44.02 262.445 44.3225C262.82 44.6 263.1 44.9825 263.247 45.425L263.25 45.4175Z" fill="white"></path>
    <path d="M269.425 45.4175L268.533 45.6675C268.473 45.5125 268.39 45.3675 268.29 45.235C268.173 45.085 268.023 44.965 267.85 44.885C267.628 44.785 267.385 44.7375 267.143 44.7475C266.795 44.735 266.45 44.83 266.158 45.02C265.918 45.165 265.77 45.425 265.768 45.705C265.758 45.93 265.858 46.1475 266.038 46.285C266.288 46.4625 266.573 46.5825 266.875 46.6425L267.833 46.8775C268.313 46.9675 268.758 47.1875 269.118 47.515C269.403 47.81 269.555 48.21 269.54 48.62C269.54 48.975 269.425 49.32 269.213 49.605C268.985 49.91 268.68 50.1475 268.33 50.295C267.915 50.4675 267.468 50.5525 267.018 50.545C266.44 50.57 265.87 50.4225 265.378 50.1175C264.945 49.83 264.65 49.3775 264.56 48.8675L265.498 48.6325C265.565 48.945 265.748 49.225 266.005 49.4125C266.298 49.5975 266.643 49.69 266.99 49.675C267.38 49.695 267.765 49.59 268.093 49.3775C268.34 49.225 268.493 48.96 268.5 48.67C268.505 48.4575 268.42 48.2525 268.268 48.105C268.06 47.9325 267.813 47.82 267.545 47.7775L266.473 47.525C265.98 47.44 265.525 47.2125 265.16 46.87C264.65 46.285 264.608 45.43 265.055 44.7975C265.275 44.51 265.565 44.2825 265.898 44.1425C266.28 43.9775 266.695 43.8975 267.11 43.9025C267.643 43.8725 268.173 44.02 268.613 44.3225C268.99 44.5975 269.273 44.9825 269.423 45.425L269.425 45.4175Z" fill="white"></path>
    <path d="M271.538 42.9025C271.353 42.905 271.173 42.835 271.04 42.705C270.908 42.5825 270.835 42.41 270.833 42.23C270.833 42.05 270.905 41.8775 271.04 41.7575C271.175 41.63 271.353 41.5575 271.538 41.56C271.723 41.5575 271.9 41.6275 272.033 41.7575C272.168 41.8775 272.245 42.05 272.243 42.23C272.243 42.4125 272.168 42.585 272.033 42.705C271.9 42.835 271.723 42.905 271.538 42.9025ZM271.033 50.415V43.975H272.018V50.415H271.033Z" fill="white"></path>
    <path d="M276.45 50.5475C275.36 50.5825 274.355 49.9625 273.898 48.9725C273.643 48.4275 273.518 47.83 273.53 47.2275C273.518 46.62 273.643 46.02 273.898 45.47C274.355 44.48 275.36 43.8575 276.45 43.89C277.54 43.8575 278.545 44.48 279.003 45.47C279.26 46.02 279.385 46.6225 279.37 47.2275C279.385 47.83 279.258 48.4275 279.003 48.9725C278.545 49.9625 277.54 50.58 276.45 50.5475ZM276.45 49.66C276.84 49.68 277.228 49.5625 277.543 49.3325C277.83 49.0975 278.05 48.79 278.175 48.44C278.445 47.6625 278.445 46.815 278.175 46.035C278.05 45.6825 277.83 45.37 277.543 45.1325C276.888 44.6725 276.015 44.6725 275.36 45.1325C275.07 45.37 274.853 45.6825 274.728 46.035C274.453 46.8125 274.453 47.6625 274.728 48.44C274.853 48.79 275.07 49.1 275.36 49.3325C275.675 49.565 276.06 49.68 276.45 49.66Z" fill="white"></path>
    <path d="M281.87 46.5399V50.4149H280.885V43.9749H281.842V44.9824H281.925C282.072 44.6574 282.312 44.3824 282.615 44.1924C282.975 43.9774 283.387 43.8724 283.805 43.8899C284.202 43.8799 284.597 43.9724 284.95 44.1599C285.282 44.3424 285.55 44.6224 285.715 44.9624C285.91 45.3899 286.002 45.8549 285.987 46.3249V50.4149H285.002V46.3899C285.027 45.9599 284.887 45.5349 284.61 45.2049C284.327 44.9124 283.932 44.7574 283.527 44.7774C283.232 44.7724 282.94 44.8424 282.68 44.9849C282.432 45.1249 282.23 45.3324 282.095 45.5849C281.94 45.8799 281.862 46.2074 281.867 46.5399H281.87Z" fill="white"></path>
    <path d="M289.688 50.5675C289.305 50.5725 288.925 50.4925 288.575 50.335C287.888 50.0325 287.458 49.3375 287.49 48.5875C287.478 48.2725 287.553 47.9625 287.708 47.6875C287.853 47.46 288.053 47.2725 288.293 47.1425C288.548 47.0075 288.818 46.9075 289.1 46.8475C289.395 46.7825 289.693 46.73 289.993 46.69C290.383 46.64 290.7 46.6025 290.948 46.575C291.133 46.565 291.315 46.5175 291.483 46.44C291.598 46.3725 291.663 46.245 291.653 46.1125V46.08C291.678 45.7275 291.56 45.38 291.325 45.115C291.045 44.87 290.675 44.7525 290.305 44.7875C289.598 44.7425 288.935 45.1325 288.63 45.7725L287.688 45.445C287.825 45.0875 288.05 44.7725 288.343 44.5275C288.615 44.3125 288.93 44.155 289.267 44.0675C289.587 43.98 289.92 43.935 290.253 43.9325C290.493 43.9375 290.733 43.9625 290.968 44.0075C291.245 44.06 291.51 44.16 291.753 44.305C292.02 44.4725 292.238 44.7075 292.383 44.9875C292.568 45.37 292.655 45.79 292.635 46.215V50.4125H291.65V49.54H291.6C291.515 49.705 291.403 49.855 291.273 49.985C291.093 50.16 290.88 50.2975 290.645 50.3925C290.343 50.515 290.018 50.575 289.69 50.5675H289.688ZM289.838 49.68C290.18 49.69 290.52 49.61 290.823 49.4475C291.078 49.31 291.29 49.1025 291.435 48.855C291.57 48.6225 291.642 48.3575 291.642 48.0875V47.1825C291.565 47.25 291.47 47.2975 291.368 47.3175C291.208 47.3625 291.045 47.3975 290.883 47.4225C290.7 47.4525 290.523 47.4775 290.35 47.4975L289.933 47.55C289.688 47.58 289.445 47.635 289.21 47.71C289.008 47.775 288.825 47.8875 288.675 48.0375C288.533 48.2025 288.46 48.4175 288.473 48.635C288.455 48.945 288.6 49.24 288.858 49.415C289.15 49.6025 289.493 49.695 289.838 49.68Z" fill="white"></path>
    <path d="M295.44 41.8275V50.415H294.455V41.8275H295.44Z" fill="white"></path>
    <path d="M300.708 50.415V41.8275H301.748V49.4925H305.74V50.415H300.708Z" fill="white"></path>
    <path d="M309.915 50.5476C309.352 50.5626 308.797 50.4201 308.31 50.1351C307.86 49.8601 307.5 49.4576 307.272 48.9801C307.02 48.4376 306.897 47.8426 306.912 47.2451C306.9 46.6426 307.022 46.0476 307.272 45.5001C307.495 45.0201 307.845 44.6101 308.285 44.3151C308.74 44.0276 309.27 43.8776 309.81 43.8876C310.145 43.8876 310.477 43.9451 310.795 44.0551C311.127 44.1726 311.432 44.3576 311.69 44.6001C311.98 44.8751 312.205 45.2101 312.345 45.5851C312.517 46.0726 312.597 46.5876 312.585 47.1051V47.5251H307.617V46.6751H311.577C311.585 46.3351 311.512 45.9976 311.36 45.6901C311.222 45.4126 311.012 45.1776 310.75 45.0151C310.467 44.8451 310.145 44.7576 309.815 44.7651C309.452 44.7551 309.097 44.8576 308.795 45.0576C308.512 45.2476 308.287 45.5101 308.14 45.8151C307.987 46.1201 307.907 46.4576 307.907 46.8001V47.3701C307.895 47.7976 307.982 48.2201 308.162 48.6076C308.315 48.9276 308.562 49.1926 308.867 49.3726C309.187 49.5526 309.552 49.6451 309.92 49.6351C310.16 49.6401 310.397 49.6001 310.625 49.5226C310.83 49.4551 311.017 49.3451 311.172 49.1951C311.332 49.0376 311.455 48.8476 311.53 48.6376L312.485 48.9026C312.387 49.2251 312.215 49.5176 311.98 49.7576C311.73 50.0076 311.43 50.2026 311.097 50.3251C310.72 50.4751 310.317 50.5501 309.91 50.5476H309.915Z" fill="white"></path>
    <path d="M315.987 50.5675C315.605 50.5725 315.225 50.4925 314.875 50.335C314.19 50.0275 313.76 49.3375 313.79 48.5875C313.775 48.2725 313.852 47.96 314.01 47.6875C314.152 47.4575 314.352 47.27 314.59 47.1425C314.845 47.0075 315.115 46.91 315.397 46.8475C315.692 46.7825 315.99 46.73 316.29 46.69C316.68 46.64 316.997 46.6025 317.245 46.575C317.43 46.565 317.612 46.5175 317.782 46.44C317.895 46.37 317.96 46.245 317.95 46.1125V46.08C317.975 45.7275 317.857 45.38 317.622 45.115C317.342 44.87 316.972 44.7525 316.602 44.7875C316.207 44.765 315.817 44.875 315.49 45.1C315.252 45.27 315.06 45.495 314.925 45.755L313.982 45.4275C314.127 45.07 314.36 44.7525 314.657 44.51C314.93 44.2925 315.242 44.1375 315.58 44.05C315.9 43.9625 316.232 43.9175 316.565 43.915C316.805 43.92 317.045 43.945 317.28 43.99C317.557 44.0425 317.822 44.1425 318.065 44.2875C318.332 44.455 318.55 44.69 318.695 44.97C318.88 45.3525 318.967 45.7725 318.947 46.1975V50.4125H317.962V49.54H317.912C317.827 49.705 317.717 49.855 317.585 49.985C317.405 50.16 317.192 50.3 316.957 50.3925C316.65 50.5175 316.317 50.575 315.987 50.5675ZM316.137 49.68C316.48 49.69 316.82 49.61 317.122 49.4475C317.377 49.31 317.59 49.105 317.735 48.855C317.87 48.6225 317.942 48.3575 317.942 48.0875V47.1825C317.865 47.2525 317.772 47.2975 317.67 47.3175C317.51 47.3625 317.347 47.3975 317.18 47.4225C317 47.4525 316.82 47.4775 316.647 47.4975L316.23 47.55C315.985 47.58 315.745 47.635 315.512 47.71C315.307 47.7725 315.125 47.885 314.975 48.0375C314.832 48.2025 314.76 48.4175 314.772 48.635C314.755 48.945 314.9 49.24 315.157 49.415C315.45 49.6025 315.792 49.695 316.137 49.68Z" fill="white"></path>
    <path d="M320.75 50.415V43.975H321.708V44.96H321.773C321.898 44.635 322.13 44.3625 322.428 44.185C322.738 43.985 323.1 43.88 323.468 43.8875H323.985V44.895L323.755 44.855C323.633 44.835 323.505 44.8275 323.38 44.83C323.09 44.825 322.803 44.8925 322.543 45.0225C322.305 45.145 322.105 45.3325 321.965 45.56C321.82 45.7925 321.745 46.0625 321.753 46.3375V50.415H320.745H320.75Z" fill="white"></path>
    <path d="M326.137 46.5399V50.4149H325.152V43.9749H326.107V44.9824H326.192C326.34 44.6574 326.58 44.3824 326.882 44.1924C327.242 43.9774 327.655 43.8724 328.072 43.8899C328.47 43.8799 328.865 43.9724 329.217 44.1599C329.55 44.3399 329.815 44.6224 329.977 44.9624C330.175 45.3874 330.27 45.8549 330.252 46.3249V50.4149H329.267V46.3899C329.292 45.9599 329.152 45.5349 328.875 45.2049C328.592 44.9124 328.197 44.7574 327.792 44.7774C327.497 44.7724 327.205 44.8424 326.945 44.9849C326.697 45.1249 326.492 45.3324 326.36 45.5849C326.205 45.8799 326.127 46.2074 326.132 46.5399H326.137Z" fill="white"></path>
    <path d="M332.56 42.9025C332.375 42.905 332.197 42.835 332.065 42.705C331.932 42.5825 331.857 42.41 331.855 42.23C331.855 42.05 331.93 41.8775 332.065 41.7575C332.197 41.6275 332.375 41.5575 332.56 41.56C332.745 41.5575 332.925 41.6275 333.057 41.7575C333.19 41.8775 333.265 42.05 333.265 42.23C333.265 42.41 333.19 42.5825 333.057 42.705C332.925 42.835 332.745 42.905 332.56 42.9025ZM332.057 50.415V43.975H333.042V50.415H332.057Z" fill="white"></path>
    <path d="M335.85 46.5399V50.4149H334.865V43.9749H335.82V44.9824H335.905C336.053 44.6574 336.293 44.3824 336.595 44.1924C336.955 43.9774 337.368 43.8724 337.785 43.8899C338.183 43.8799 338.578 43.9724 338.93 44.1599C339.263 44.3424 339.528 44.6224 339.69 44.9624C339.888 45.3874 339.98 45.8549 339.963 46.3249V50.4149H338.978V46.3899C339.003 45.9599 338.863 45.5349 338.585 45.2049C338.303 44.9149 337.908 44.7599 337.503 44.7774C337.208 44.7724 336.915 44.8424 336.655 44.9849C336.408 45.1249 336.203 45.3324 336.07 45.5849C335.918 45.8799 335.84 46.2074 335.848 46.5399H335.85Z" fill="white"></path>
    <path d="M344.367 52.965C343.95 52.9725 343.532 52.9125 343.135 52.7825C342.822 52.6775 342.532 52.515 342.28 52.3025C342.067 52.1225 341.882 51.91 341.735 51.6725L342.525 51.1175C342.612 51.235 342.727 51.37 342.852 51.525C343.012 51.6925 343.205 51.8275 343.417 51.9225C343.715 52.0475 344.037 52.105 344.36 52.0925C344.82 52.11 345.272 51.9775 345.65 51.715C346.002 51.4275 346.192 50.985 346.155 50.53V49.2175H346.072C346 49.335 345.895 49.48 345.765 49.655C345.61 49.845 345.415 50 345.195 50.11C344.882 50.2575 344.54 50.3275 344.195 50.31C343.705 50.3175 343.22 50.1875 342.797 49.94C342.372 49.685 342.03 49.3125 341.812 48.8675C341.56 48.3325 341.437 47.745 341.455 47.155C341.44 46.56 341.56 45.9725 341.802 45.43C342.017 44.965 342.357 44.57 342.787 44.2925C343.215 44.0175 343.712 43.875 344.22 43.885C344.56 43.87 344.9 43.9425 345.205 44.095C345.427 44.2075 345.622 44.3675 345.775 44.565C345.91 44.74 346.01 44.8925 346.082 44.995H346.185V43.9725H347.14V50.5975C347.162 51.075 347.03 51.55 346.765 51.95C346.512 52.3 346.162 52.5675 345.757 52.7175C345.315 52.885 344.845 52.97 344.37 52.9675L344.367 52.965ZM344.335 49.4275C344.69 49.4375 345.04 49.3425 345.342 49.155C345.625 48.9625 345.842 48.69 345.965 48.37C346.117 47.98 346.192 47.5625 346.182 47.1425C346.19 46.725 346.117 46.3075 345.972 45.915C345.847 45.5825 345.632 45.2925 345.35 45.0775C345.055 44.87 344.697 44.7625 344.337 44.775C343.962 44.765 343.592 44.88 343.29 45.1025C343.005 45.3225 342.79 45.62 342.667 45.9575C342.525 46.3375 342.452 46.7425 342.457 47.1475C342.45 47.5525 342.522 47.955 342.67 48.3325C342.925 49.0225 343.6 49.4675 344.337 49.4325V49.4225L344.335 49.4275Z" fill="white"></path>
  </g>
  <defs>
    <clipPath id="clip0_2623_2405">
      <rect width="347.14" height="66.7525" fill="white"></rect>
    </clipPath>
  </defs>
</svg>
